<svg viewBox="0 0 167 30" fill="none" xmlns="http://www.w3.org/2000/svg">
    <path d="M32.2008 0.526817H2.5445C1.13969 0.526817 0 1.66553 0 3.0715V20.0762C0 21.4811 1.13863 22.6209 2.5445 22.6209H12.7743V27.8761H8.44364C8.17535 27.8761 7.93136 27.9849 7.75602 28.1613C7.57963 28.3377 7.47084 28.5807 7.47084 28.849C7.47084 29.3866 7.90707 29.8218 8.44364 29.8218H26.4484C26.7167 29.8218 26.9607 29.713 27.1361 29.5366C27.3124 29.3602 27.4212 29.1173 27.4212 28.849C27.4212 28.3113 26.985 27.8761 26.4484 27.8761H22.1178V22.6209H32.2008C33.6056 22.6209 34.7453 21.4822 34.7453 20.0762V3.07044C34.7442 1.66553 33.6056 0.526817 32.2008 0.526817ZM8.17535 5.68484L9.14816 5.49048L8.56405 14.5421L7.59125 14.8337L8.17535 5.68484ZM17.032 17.1692C17.032 17.1692 17.1746 16.8829 15.0705 16.5565C13.9837 16.3886 12.9021 16.191 11.8279 15.9576L11.5818 15.9037L8.07818 15.2224L8.56511 15.028L8.95487 14.9308L11.68 15.028C11.68 15.028 16.1564 15.2224 17.4217 17.1692H17.032ZM9.05204 14.5421L9.53897 5.49048C9.53897 5.49048 16.2546 5.1007 17.033 7.63165L17.4228 16.4889C17.4217 16.4879 16.0592 14.3467 9.05204 14.5421ZM17.8104 16.4879L17.5189 7.53341C18.2974 5.00246 24.5261 4.61373 24.5261 4.61373L25.9858 13.6654C19.4645 14.4439 17.8104 16.4879 17.8104 16.4879ZM19.2702 16.585C18.1991 16.8766 18.102 17.1692 18.102 17.1692H17.9076C18.6861 15.9037 20.7299 15.3196 20.7299 15.3196C26.666 13.4699 26.666 14.1513 26.666 14.1513L19.2702 16.585ZM26.3745 13.5682L25.2031 5.78625L25.1957 5.73344L25.013 4.51655H25.9858L27.4455 13.7625L26.3745 13.5682Z" fill="url(#paint0_linear_45_123)"/>
    <path d="M56.4616 15.4713V15.9245H53.0845L50.9956 12.1137H49.3241V15.9245H46.1387V3.74166C47.9482 3.74166 49.7058 3.72379 51.4991 3.74166C54.4409 3.74166 55.885 5.91671 55.885 8.05764C55.8671 9.44973 55.2758 10.7898 54.0754 11.6085L56.4616 15.4713ZM51.4845 9.51958C52.3714 9.51958 52.8068 8.7545 52.8068 7.98779C52.8068 7.22271 52.3893 6.50799 51.4845 6.50799H49.2737V9.51958H51.4845Z" fill="black"/>
    <path d="M58.1333 11.922V3.75953H61.3187V11.8522C61.3187 12.8609 62.2056 13.2963 63.112 13.2963C63.9648 13.2963 64.8696 12.8609 64.8696 11.8522V3.75953H68.0193V11.922C68.0193 14.6543 65.6526 16.1 63.0942 16.1C60.5179 16.0983 58.1333 14.6543 58.1333 11.922Z" fill="black"/>
    <path d="M72.944 12.1998C72.944 13.0348 73.9008 13.4522 74.8754 13.4522C75.7802 13.4522 76.7369 13.0348 76.7369 12.3038C76.7369 11.1375 75.379 11.0855 74.492 11.0335C72.265 10.8938 70.0364 10.0069 70.0364 7.46637C70.0364 4.82026 72.2813 3.48015 74.7698 3.48015C77.1187 3.48015 79.5033 4.82026 79.4513 7.46637H76.4754C76.4575 6.63144 75.6746 6.2822 74.8218 6.2822C74.1087 6.2822 73.1682 6.47388 73.1682 7.39653C73.1682 8.21522 73.865 8.40527 75.0297 8.5271C77.6222 8.75289 79.885 9.36203 79.885 12.3217C79.885 14.88 77.3964 16.2202 74.9079 16.2202C72.3316 16.2202 69.8609 14.932 69.9129 12.1998H72.944Z" fill="black"/>
    <path d="M80.7246 6.54372V3.75953H89.7757V6.54372H86.7998V15.9424H83.7183V6.54372H80.7246Z" fill="black"/>
    <path d="M97.2255 13.3661V15.9424H90.9424V13.3661H92.492V6.33418H91.0821V3.7579H97.0874V6.33418H95.6775V13.3661H97.2255Z" fill="black"/>
    <path d="M102.55 13.0867H106.953V15.9408H99.3643V3.7579H102.55V13.0867Z" fill="black"/>
    <path d="M114.369 13.3661V15.9424H108.086V13.3661H109.636V6.33418H108.226V3.7579H114.231V6.33418H112.821V13.3661H114.369Z" fill="black"/>
    <path d="M121.174 3.77579C125.142 3.77579 127.179 6.80363 127.179 9.79737C127.231 12.8609 125.212 15.9408 121.174 15.9408H116.526V3.77579H121.174ZM121.14 13.0705C123.071 13.0705 123.994 11.4526 123.994 9.8331C123.994 8.23146 123.019 6.62982 121.14 6.62982H119.712V13.0689H121.14V13.0705Z" fill="black"/>
    <path d="M131.355 14.4268L130.658 15.9408H127.335V15.5054L132.921 3.63607H134.383L139.917 15.5054V15.9408H136.628L135.915 14.4268H131.355ZM132.382 11.7645H134.906L133.636 8.82273L132.382 11.7645Z" fill="black"/>
    <path d="M140.562 14.6705C140.562 13.6959 141.328 13.0689 142.286 13.0689C143.261 13.0689 144.009 13.6959 144.009 14.6705C144.009 15.6451 143.261 16.2543 142.286 16.2543C141.329 16.2543 140.562 15.6468 140.562 14.6705Z" fill="black"/>
    <path d="M145.871 11.922V3.75953H149.056V11.8522C149.056 12.8609 149.943 13.2963 150.849 13.2963C151.702 13.2963 152.607 12.8609 152.607 11.8522V3.75953H155.757V11.922C155.757 14.6543 153.39 16.1 150.831 16.1C148.255 16.0983 145.871 14.6543 145.871 11.922Z" fill="black"/>
    <path d="M166.948 4.22898L162.057 13.1046H167V15.9408H157.375V15.4876L162.283 6.52423H157.809V3.75629H166.946V4.22898H166.948Z" fill="black"/>
    <path d="M81.7617 22.741C82.1402 23.186 82.3335 23.7611 82.34 24.4661C82.34 25.171 82.145 25.7477 81.7568 26.196C81.3686 26.6444 80.8439 26.8685 80.186 26.8685C79.5282 26.8685 79.0084 26.6476 78.6266 26.2058C78.2449 25.7639 78.0532 25.1938 78.0532 24.4969C78.0532 23.7919 78.2465 23.212 78.6315 22.7572C79.0165 22.3024 79.5412 22.075 80.2072 22.075C80.8634 22.0734 81.3832 22.2959 81.7617 22.741ZM79.494 23.4427C79.3316 23.7188 79.2504 24.0583 79.2504 24.4644C79.2504 24.916 79.3316 25.275 79.494 25.5414C79.6565 25.8078 79.8904 25.9394 80.1974 25.9394C80.5028 25.9394 80.7383 25.8078 80.9056 25.5463C81.0713 25.2831 81.1509 24.9258 81.1444 24.4742C81.1379 24.0356 81.0535 23.6847 80.891 23.4232C80.7286 23.1601 80.4947 23.0301 80.1877 23.0301C79.8872 23.0301 79.6565 23.1682 79.494 23.4427Z" fill="black"/>
    <path d="M87.0555 26.7776H86.1686L84.4841 24.5554V26.7776H83.3584V22.1919H84.2356L85.92 24.5846V22.1919H87.0571V26.7776H87.0555Z" fill="black"/>
    <path d="M89.5276 25.8906L91.472 25.8809L91.4622 26.7776H88.3418V22.1919H89.5276V25.8906Z" fill="black"/>
    <path d="M93.5154 26.7776H92.3198V22.1919H93.5154V26.7776Z" fill="black"/>
    <path d="M98.5091 26.7776H97.6222L95.9377 24.5554V26.7776H94.812V22.1919H95.6892L97.3737 24.5846V22.1919H98.5107V26.7776H98.5091Z" fill="black"/>
    <path d="M102.646 25.9507V26.7776H99.7954V22.1919H102.617V23.009H100.983V24.0161H102.419V24.7942H100.983V25.9605L102.646 25.9507Z" fill="black"/>
    <path d="M111.648 22.1919V26.7776H110.492V23.8667L109.335 26.7776H108.448L107.311 23.8667V26.7776H106.155V22.1919H107.639L108.895 25.3513L110.172 22.1919H111.648Z" fill="black"/>
    <path d="M115.338 25.9101H113.952L113.743 26.7776H112.526L113.842 22.1919L115.487 22.1822L116.822 26.7776H115.546L115.338 25.9101ZM115.198 25.3319L114.649 22.9895H114.639L114.08 25.3319H115.198Z" fill="black"/>
    <path d="M120.482 26.7776L118.887 24.5343V26.7776H117.701V22.1919H118.887V24.1461L120.492 22.1919H121.757L119.953 24.3247L121.837 26.7776H120.482Z" fill="black"/>
    <path d="M125.995 23.1097H124.708V26.7776H123.472V23.1097H122.176V22.1919H125.993V23.1097H125.995Z" fill="black"/>
    <path d="M129.074 25.9101H127.689L127.479 26.7776H126.263L127.578 22.1919L129.224 22.1822L130.559 26.7776H129.282L129.074 25.9101ZM128.935 25.3319L128.386 22.9895H128.376L127.817 25.3319H128.935Z" fill="black"/>
    <path d="M134.634 26.4445C134.325 26.6671 133.898 26.7792 133.352 26.7792H131.438V22.1935L133.352 22.2033C133.81 22.2033 134.197 22.304 134.509 22.507C134.82 22.7101 134.976 23.0041 134.976 23.3891C134.976 23.701 134.89 23.9397 134.716 24.1022C134.544 24.2646 134.364 24.3605 134.179 24.3864C134.777 24.5521 135.079 24.9176 135.085 25.4829C135.093 25.9004 134.942 26.2204 134.634 26.4445ZM132.624 22.9099V24.047H133.203C133.355 24.047 133.488 23.9998 133.601 23.9073C133.714 23.8147 133.769 23.6685 133.769 23.4687C133.769 23.0967 133.573 22.9099 133.181 22.9099H132.624ZM133.183 26.0108C133.376 26.0108 133.536 25.9588 133.662 25.8565C133.789 25.7542 133.852 25.5917 133.852 25.3724C133.852 25.1726 133.797 25.0183 133.688 24.9095C133.579 24.8007 133.435 24.7454 133.255 24.7454H132.626V26.0108H133.183Z" fill="black"/>
    <defs>
        <linearGradient id="paint0_linear_45_123" x1="0.000813311" y1="15.1743" x2="34.7445" y2="15.1743" gradientUnits="userSpaceOnUse">
            <stop stop-color="#01B335"/>
            <stop offset="1" stop-color="#01A9B5"/>
        </linearGradient>
    </defs>
</svg>
